HIERARCHY
ROOT Hips
{
 OFFSET 0.000000 0.000000 0.000000
 CHANNELS 6 Xposition Yposition Zposition Yrotation Xrotation Zrotation
 JOINT Chest
 {
  OFFSET 0.000000 10.259850 -1.139984
  CHANNELS 3 Yrotation Xrotation Zrotation
  JOINT Chest2
  {
   OFFSET 0.000000 11.398141 0.000000
   CHANNELS 3 Yrotation Xrotation Zrotation
   JOINT Chest3
   {
    OFFSET 0.000000 10.406538 -0.000686
    CHANNELS 3 Yrotation Xrotation Zrotation
    JOINT Chest4
    {
     OFFSET 0.000000 10.394921 -0.000686
     CHANNELS 3 Yrotation Xrotation Zrotation
     JOINT Neck
     {
      OFFSET 0.000000 14.551517 0.000000
      CHANNELS 3 Yrotation Xrotation Zrotation
      JOINT Head
      {
       OFFSET 0.000000 9.677932 0.001475
       CHANNELS 3 Yrotation Xrotation Zrotation
       End Site
       {
        OFFSET 0.000000 17.974674 0.000198
       }
      }
     }
     JOINT RightCollar
     {
      OFFSET -3.167137 8.157278 0.000000
      CHANNELS 3 Yrotation Xrotation Zrotation
      JOINT RightShoulder
      {
       OFFSET -14.801341 0.000000 0.000000
       CHANNELS 3 Yrotation Xrotation Zrotation
       JOINT RightElbow
       {
        OFFSET -31.642884 0.000000 0.000000
        CHANNELS 3 Yrotation Xrotation Zrotation
        JOINT RightWrist
        {
         OFFSET -25.874582 0.000000 0.000000
         CHANNELS 3 Yrotation Xrotation Zrotation
         End Site
         {
          OFFSET -19.340865 0.000000 0.000000
         }
        }
       }
      }
     }
     JOINT LeftCollar
     {
      OFFSET 3.167137 8.157278 0.000000
      CHANNELS 3 Yrotation Xrotation Zrotation
      JOINT LeftShoulder
      {
       OFFSET 14.801341 0.000000 0.000000
       CHANNELS 3 Yrotation Xrotation Zrotation
       JOINT LeftElbow
       {
        OFFSET 31.642884 0.000000 0.000000
        CHANNELS 3 Yrotation Xrotation Zrotation
        JOINT LeftWrist
        {
         OFFSET 25.874582 0.000000 0.000000
         CHANNELS 3 Yrotation Xrotation Zrotation
         End Site
         {
          OFFSET 19.340865 0.000000 0.000000
         }
        }
       }
      }
     }
    }
   }
  }
 }
 JOINT RightHip
 {
  OFFSET -8.438296 0.002831 -0.000315
  CHANNELS 3 Yrotation Xrotation Zrotation
  JOINT RightKnee
  {
   OFFSET 0.000000 -43.688570 -0.000162
   CHANNELS 3 Yrotation Xrotation Zrotation
   JOINT RightAnkle
   {
    OFFSET 0.000000 -42.683389 -0.000272
    CHANNELS 3 Yrotation Xrotation Zrotation
    JOINT RightToe
    {
     OFFSET 0.000000 -7.666805 17.422395
     CHANNELS 3 Yrotation Xrotation Zrotation
     End Site
     {
      OFFSET 0.000000 -1.661923 7.250478
     }
    }
   }
  }
 }
 JOINT LeftHip
 {
  OFFSET 8.438296 0.000526 -0.000058
  CHANNELS 3 Yrotation Xrotation Zrotation
  JOINT LeftKnee
  {
   OFFSET 0.000000 -43.688570 -0.000162
   CHANNELS 3 Yrotation Xrotation Zrotation
   JOINT LeftAnkle
   {
    OFFSET 0.000000 -42.683389 -0.000272
    CHANNELS 3 Yrotation Xrotation Zrotation
    JOINT LeftToe
    {
     OFFSET 0.000000 -7.666805 17.422395
     CHANNELS 3 Yrotation Xrotation Zrotation
     End Site
     {
      OFFSET 0.000000 -1.661923 7.250478
     }
    }
   }
  }
 }
}
MOTION
Frames: 9
Frame Time: 0.016667
1078.073704 92.042216 73.593499 27.474378 -2.338544 1.184935 -3.283006 5.236647 -2.227774 -1.335554 -3.482463 -0.952917 -1.334090 2.336391 -1.088590 -1.079431 7.590781 -0.818109 1.279631 9.722720 0.870033 2.084776 -17.974556 1.096024 3.718223 4.472845 5.964800 -5.012859 12.237294 60.576685 64.218092 7.881068 34.944787 9.220752 -2.353928 -11.581180 3.386663 3.768593 -8.842417 -5.897527 -15.575224 -59.743588 -100.171995 -11.294493 -26.387990 -0.811042 -0.216396 17.670370 -3.239119 -26.907715 1.177305 165.273003 79.219781 169.565773 1.132489 -2.557095 -1.225984 -0.000000 -0.000000 -0.000000 9.655062 4.585673 -6.714372 -7.078077 30.779406 0.642353 0.466555 -19.271992 6.486648 0.108435 -12.621826 -0.993938
1081.289662 93.179416 80.429859 25.223275 -2.571852 0.904716 -3.457236 5.165524 -2.041294 -1.423932 -3.514825 -0.868658 -1.422303 2.303765 -1.013284 -1.140107 7.566337 -0.760859 2.024118 10.105141 0.633521 3.635421 -17.251599 0.298846 3.984519 3.172814 5.702066 -7.590419 15.307476 57.274054 68.342767 6.851509 37.302626 9.216584 -2.629175 -11.664464 2.933042 4.128454 -8.287064 -6.556806 -17.889988 -60.060665 -107.445285 -12.869935 -24.245502 -0.176344 0.584172 17.798802 -1.054863 -30.228867 1.906270 148.588278 85.358257 152.785989 2.579236 -4.878062 -0.858770 0.000000 0.000000 0.000000 10.270240 10.192208 -5.106624 -5.741904 27.624314 0.703705 -0.123854 -9.874011 2.829814 -0.417606 -21.408555 3.061901
1084.481269 94.574945 87.331615 22.538597 -2.926455 0.625164 -3.505072 5.144990 -1.835566 -1.456897 -3.525354 -0.776906 -1.455228 2.293202 -0.924909 -1.158357 7.558380 -0.693950 2.781634 10.650762 0.352276 5.213884 -16.209626 -0.569463 4.432079 1.798889 5.400719 -10.824714 17.508038 53.914105 73.119752 6.575541 40.088261 9.092960 -3.118782 -12.342666 2.379027 4.649693 -7.706778 -6.896861 -19.532172 -60.399891 -115.210186 -13.334755 -22.036281 0.436511 1.600218 17.950509 1.328989 -32.644913 2.547281 21.374726 85.142992 25.324417 3.880266 -6.688853 -0.361314 -0.000000 -0.000000 -0.000000 10.672983 15.523955 -3.617724 -4.049979 24.466173 0.554463 -1.825937 3.047131 -1.878971 -1.526903 -31.243780 8.634956
1087.740633 95.843012 94.211556 20.263695 -3.212767 0.569599 -3.456048 5.112807 -1.675662 -1.444169 -3.541135 -0.706634 -1.442469 2.277452 -0.853334 -1.143577 7.546441 -0.639898 3.341872 11.109018 0.095458 6.388965 -15.325609 -1.289046 5.032369 1.191408 5.235535 -14.376603 18.657170 51.104009 77.052193 5.571837 42.044938 8.836913 -3.258133 -12.699524 1.822695 4.478989 -7.295856 -6.025487 -20.543802 -60.860305 -121.329480 -14.059009 -21.622540 0.751573 2.324354 17.600494 3.168401 -33.954851 2.915641 2.732388 75.910930 6.456190 4.699557 -8.438583 0.239321 0.000000 0.000000 0.000000 11.518435 19.463160 -2.422693 -2.922493 23.198365 0.311757 -3.927091 13.779375 -6.370980 -1.837212 -34.793418 11.331270
1091.135960 96.913163 101.017958 18.708819 -3.348004 0.881571 -3.261363 5.002900 -1.594522 -1.362430 -3.591396 -0.673494 -1.360694 2.227330 -0.811830 -1.079313 7.508635 -0.608853 3.592416 11.438142 -0.101841 6.939603 -14.691975 -1.756586 5.968830 1.978404 5.221538 -18.637461 18.722794 49.236755 79.441913 3.059521 42.685419 8.353618 -2.666657 -12.211095 1.161137 2.686531 -7.111630 -2.586010 -20.827490 -61.598140 -125.117498 -16.865199 -24.193655 0.386179 2.437969 16.547367 4.168871 -33.937867 2.724190 -3.413909 65.123175 0.442839 4.965782 -10.393897 0.766869 0.000000 -0.000000 -0.000000 13.476122 21.418273 -1.268781 -3.151878 24.488499 0.153297 -5.097119 20.669988 -10.094930 -0.369142 -26.306968 7.973123
1094.599045 97.855854 107.802546 17.562383 -3.391884 1.401669 -2.967086 4.873989 -1.557310 -1.233954 -3.649923 -0.661066 -1.232260 2.169113 -0.786350 -0.981277 7.464779 -0.590129 3.653334 11.681236 -0.259323 7.110402 -14.227679 -2.068321 7.018164 3.548607 5.308774 -23.036233 18.011456 48.395279 80.955578 0.148742 42.604774 7.758162 -1.728205 -11.413490 0.531329 0.169838 -7.020448 1.998466 -20.339875 -62.333087 -127.102240 -20.937399 -28.120227 -0.336289 2.215895 15.187709 4.687750 -32.801157 2.196678 -6.389532 53.108998 -2.123078 4.814435 -12.220365 1.283483 -0.000000 0.000000 0.000000 15.770560 21.924040 -0.209922 -3.982903 27.620682 0.090163 -5.651390 25.621307 -13.234176 0.312551 -11.288086 3.044528
1098.017382 98.496653 114.633276 16.734238 -3.362039 1.881650 -2.745996 4.843558 -1.527030 -1.137310 -3.664286 -0.650229 -1.135713 2.155002 -0.765753 -0.907427 7.454077 -0.574950 3.674826 11.717514 -0.373932 7.198477 -14.151464 -2.294402 7.535044 4.880660 5.482268 -25.850806 17.005001 48.649186 82.104000 -1.469236 41.998153 7.383682 -1.066725 -10.938553 0.363336 -1.187553 -6.927416 4.561782 -19.312814 -62.904493 -127.254435 -23.753199 -30.991158 -0.648130 2.039027 13.956453 4.992968 -30.963255 1.884947 -6.333551 41.483248 -2.080994 4.290460 -13.460711 1.875338 -0.000000 -0.000000 0.000000 16.881659 21.528251 0.266070 -4.052929 32.413391 0.042993 -5.896788 28.449710 -14.938939 -0.000000 0.000000 0.000000
1101.373804 98.777956 121.571038 16.259031 -3.220029 2.266815 -2.700142 4.937276 -1.511065 -1.117450 -3.622858 -0.643038 -1.115925 2.196477 -0.756568 -0.891834 7.485150 -0.568038 3.723013 11.440943 -0.427978 7.331400 -14.658077 -2.438324 7.104835 5.200236 5.749608 -26.309428 16.317935 49.874875 83.257838 -0.717472 40.563749 7.358541 -0.990413 -11.134212 0.984915 -0.308528 -6.791895 3.094286 -17.615368 -63.444741 -125.467165 -23.987638 -31.584564 -0.066559 2.231763 12.934514 4.904180 -28.112773 2.027788 -2.849601 29.831067 -0.311136 3.037216 -13.916702 2.498310 -0.000000 -0.000000 0.000000 15.696512 20.233501 -0.335324 -2.474345 39.482748 -0.041083 -5.303052 28.124299 -14.384305 -0.156334 2.635025 -0.570859
1104.685479 98.757368 128.554942 16.103779 -3.013760 2.610435 -2.729626 5.126447 -1.504664 -1.130335 -3.538762 -0.638592 -1.128943 2.280527 -0.753415 -0.901223 7.548185 -0.565493 3.738055 10.957513 -0.437164 7.395331 -15.553110 -2.497851 6.160169 5.270358 6.088476 -25.225210 15.397624 52.011652 84.152990 1.422077 38.583475 7.537655 -1.198048 -11.638948 2.036340 1.739885 -6.675620 -0.418022 -15.523270 -63.979896 -122.065372 -22.917700 -31.045949 1.015482 2.631086 12.158029 4.632565 -24.556266 2.351714 1.405410 18.507280 1.041682 1.541329 -13.830047 2.940099 0.000000 -0.000000 0.000000 13.415116 17.984003 -1.418023 -0.020297 48.233730 0.014837 -3.851690 25.615062 -12.411470 -0.090819 1.322887 -0.256498
